<svg width="2000" height="800" viewBox="0 0 2000 800" fill="none" xmlns="http://www.w3.org/2000/svg">
<path d="M271.801 213.091H417.256V249.455H308.165V467.636H417.256V504H271.801V213.091ZM417.256 249.455H453.619V467.636H417.256V249.455ZM599.216 322.182H526.489V285.818H635.58V467.636H708.307V504H526.489V467.636H599.216V322.182ZM599.216 213.091H635.58V249.455H599.216V213.091ZM781.176 285.818H853.903V322.182H817.54V504H781.176V285.818ZM853.903 322.182H890.267V504H853.903V322.182ZM926.631 322.182H890.267V285.818H926.631V322.182ZM926.631 322.182H962.994V504H926.631V322.182ZM1035.86 213.091H1072.23V467.636H1217.68V504H1035.86V213.091ZM1290.55 213.091H1472.37V249.455H1326.91V322.182H1436.01V358.545H1326.91V467.636H1472.37V504H1290.55V213.091ZM1545.24 213.091H1690.69V249.455H1581.6V467.636H1690.69V504H1545.24V213.091ZM1690.69 249.455H1727.06V467.636H1690.69V249.455Z" fill="#FEFEFE"/>
<path d="M847.636 562.909H859.273V586.182H870.909V597.818H859.273V656H847.636V562.909ZM894.182 597.818H882.545V586.182H894.182V562.909H905.818V656H894.182V597.818ZM870.909 597.818H882.545V621.091H870.909V597.818ZM952.409 644.364V574.545H929.136V562.909H987.318V574.545H964.045V644.364H987.318V656H929.136V644.364H952.409ZM1010.64 562.909H1022.27V586.182H1033.91V597.818H1022.27V656H1010.64V562.909ZM1057.18 621.091H1045.55V609.455H1057.18V562.909H1068.82V656H1057.18V621.091ZM1045.55 609.455H1033.91V597.818H1045.55V609.455ZM1115.41 644.364V574.545H1092.14V562.909H1150.32V574.545H1127.05V644.364H1150.32V656H1092.14V644.364H1115.41Z" fill="#FEFEFE"/>
<path d="M742 558C746.418 558 750 561.582 750 566V652C750 656.418 746.418 660 742 660H158C153.582 660 150 656.418 150 652V566C150 561.582 153.582 558 158 558H742ZM195.5 632.5H232.5V619.5H195.5V632.5ZM248.5 632.5H295.5V586.5H248.5V632.5ZM314.5 632.5H351.5V619.5H314.5V632.5ZM370.5 632.5H417.5V586.5H370.5V632.5ZM436.5 632.5H473.5V619.5H436.5V632.5ZM492.5 632.5H539.5V586.5H492.5V632.5ZM558.5 632.5H595.5V619.5H558.5V632.5ZM614.5 632.5H661.5V586.5H614.5V632.5ZM680.5 619.5V632.5H717.5V619.5H680.5ZM290.5 627.5H253.5V591.5H290.5V627.5ZM412.5 627.5H375.5V591.5H412.5V627.5ZM534.5 627.5H497.5V591.5H534.5V627.5ZM656.5 627.5H619.5V591.5H656.5V627.5ZM259.5 621.5H284.5V597.5H259.5V621.5ZM381.5 621.5H406.5V597.5H381.5V621.5ZM503.5 621.5H528.5V597.5H503.5V621.5ZM625.5 621.5H650.5V597.5H625.5V621.5ZM195.5 599.5H232.5V586.5H195.5V599.5ZM314.5 599.5H351.5V586.5H314.5V599.5ZM436.5 599.5H473.5V586.5H436.5V599.5ZM558.5 599.5H595.5V586.5H558.5V599.5ZM680.5 599.5H717.5V586.5H680.5V599.5Z" fill="#FEFEFE"/>
<path d="M1258 558C1253.58 558 1250 561.582 1250 566V652C1250 656.418 1253.58 660 1258 660H1842C1846.42 660 1850 656.418 1850 652V566C1850 561.582 1846.42 558 1842 558H1258ZM1804.5 632.5H1767.5V619.5H1804.5V632.5ZM1751.5 632.5H1704.5V586.5H1751.5V632.5ZM1685.5 632.5H1648.5V619.5H1685.5V632.5ZM1629.5 632.5H1582.5V586.5H1629.5V632.5ZM1563.5 632.5H1526.5V619.5H1563.5V632.5ZM1507.5 632.5H1460.5V586.5H1507.5V632.5ZM1441.5 632.5H1404.5V619.5H1441.5V632.5ZM1385.5 632.5H1338.5V586.5H1385.5V632.5ZM1319.5 619.5V632.5H1282.5V619.5H1319.5ZM1709.5 627.5H1746.5V591.5H1709.5V627.5ZM1587.5 627.5H1624.5V591.5H1587.5V627.5ZM1465.5 627.5H1502.5V591.5H1465.5V627.5ZM1343.5 627.5H1380.5V591.5H1343.5V627.5ZM1740.5 621.5H1715.5V597.5H1740.5V621.5ZM1618.5 621.5H1593.5V597.5H1618.5V621.5ZM1496.5 621.5H1471.5V597.5H1496.5V621.5ZM1374.5 621.5H1349.5V597.5H1374.5V621.5ZM1804.5 599.5H1767.5V586.5H1804.5V599.5ZM1685.5 599.5H1648.5V586.5H1685.5V599.5ZM1563.5 599.5H1526.5V586.5H1563.5V599.5ZM1441.5 599.5H1404.5V586.5H1441.5V599.5ZM1319.5 599.5H1282.5V586.5H1319.5V599.5Z" fill="#FEFEFE"/>
<mask id="path-5-inside-1_11_342" fill="white">
<rect x="150" y="50" width="1700" height="700" rx="8"/>
</mask>
<rect x="150" y="50" width="1700" height="700" rx="8" stroke="#FEFEFE" stroke-width="64" mask="url(#path-5-inside-1_11_342)"/>
</svg>
